<?xml version="1.0" encoding="utf-8"?>
<!-- Generator: Adobe Illustrator 21.0.2, SVG Export Plug-In . SVG Version: 6.00 Build 0)  -->
<svg version="1.1" id="Layer_1" xmlns="http://www.w3.org/2000/svg" xmlns:xlink="http://www.w3.org/1999/xlink" x="0px" y="0px"
	 viewBox="0 0 841.9 595.3" style="enable-background:new 0 0 841.9 595.3;" xml:space="preserve">
<style type="text/css">
	.st0{fill:#FF9012;}
	.st1{fill:#FFFFFF;}
	.st2{fill:none;}
</style>
<g>
	<path class="st0" d="M181.4,136.7h95.5c0,0,21.3,116.8,35.2,130.6c0,0,146.4-87.1,213.2-92.7V272c0,0-129.8,23.2-189.1,56.5
		c0,0,79.7,145.5,105.7,163.1c0,0-87.1-29.6-162.2-133.4c0,0-82.5,50-109.4,76.9c0,0,29.7-73.2,84.3-118.6
		C254.6,316.4,202.7,234,181.4,136.7z"/>
	<g>
		<path class="st1" d="M390.6,386.3c-2.7,1.3-4.8,1.9-6.4,1.9c-4,0-6-1.8-6-5.3c0-1.8,0.7-6.3,2.1-13.4l2.9-14.6
			c1.8-8.7,2.7-15.1,2.7-19.3c0-2.3-0.6-4.2-1.9-5.7c4.1-1.4,7.5-2.1,10-2.1c2.7,0,4.1,1.7,4.1,5.2c0,2.2-1,7.8-2.9,17l-3.3,17.1
			c7.4-14.4,14.8-25.5,22.3-33.5c7.5-8,14.3-11.9,20.4-11.9c2.1,0,4,0.6,5.6,1.8c1.6,1.2,2.3,2.7,2.3,4.5c0,2.7-3,6.4-8.9,10.9
			c-1.5-3.1-3.6-4.6-6.3-4.6c-5,0-11.3,5.3-19,15.8c-4.8,6.6-8.9,13.4-12.4,20.3c-3.5,7-5.3,12-5.3,14.9L390.6,386.3z"/>
		<path class="st1" d="M453.2,362.3c0,11.4,4.9,17.2,14.6,17.2c8.4,0,17.7-4,27.8-12c10.1-8,19.3-18.5,27.4-31.6l5,2.8
			c-7.7,14.3-17.6,26.2-29.9,35.5c-12.3,9.4-23.9,14.1-34.9,14.1c-7,0-12.6-2.3-16.7-6.8c-4.1-4.5-6.1-10.7-6.1-18.6
			c0-11.3,3.7-21.1,11.1-29.1c7.4-8.1,16.4-12.1,26.8-12.1c5,0,9.1,1.3,12.1,3.8c3,2.5,4.5,6,4.5,10.2c0,7-4.2,13.2-12.7,18.6
			C473.8,359.6,464.1,362.3,453.2,362.3z M453.6,356.6c8.2-0.4,15.2-2.8,21-7c5.9-4.3,8.8-9.2,8.8-14.8c0-5-2.2-7.5-6.7-7.5
			c-5.3,0-10.2,2.9-14.7,8.6C457.5,341.6,454.7,348.5,453.6,356.6z"/>
		<path class="st1" d="M531.2,366.1c14.1-29.7,26.5-44.5,37.3-44.5c4.7,0,7.1,3.4,7.1,10.2c0,2.9-1,9.5-3.1,19.8l-3.5,17.8
			c6.9-14.4,14-26,21.4-34.7c7.4-8.7,13.9-13.1,19.3-13.1c5.9,0,8.9,3.5,8.9,10.4c0,2.5-0.9,8.2-2.6,17.2l-1.8,9.1
			c-1.1,5.5-1.6,9.6-1.6,12.3c0,4.7,1.7,7,5,7c7.5,0,19.1-13.9,34.6-41.8l4.9,2.8c-17,33.1-31.8,49.6-44.5,49.6
			c-8.1,0-12.2-5.3-12.2-15.8c0-3.5,0.8-9.2,2.3-17l1.6-8.1c1.1-5.5,1.6-8.9,1.6-10.2c0-1.7-0.9-2.5-2.6-2.5
			c-4.2,0-11.8,8.4-22.7,25.2c-9.9,15.3-14.8,24-14.8,26.2c0,0.2,0.1,0.6,0.2,1.2c-0.5,0.1-1.5,0.4-2.9,0.8
			c-0.6,0.2-1.5,0.3-2.6,0.3c-3.6,0-5.5-1.7-5.5-5.2c0-1.1,0.6-4.2,1.8-9.6c0.4-1.9,0.9-4,1.3-6.2l2.5-12.4c1.8-9,2.7-14.3,2.7-16.1
			c0-2.6-1-3.9-2.9-3.9c-4.2,0-10.4,7.6-18.7,22.7c-8.2,15-12.3,24-12.3,26.8c0,0.8,0.3,1.6,0.9,2.4c-2.2,0.9-4.1,1.4-5.9,1.4
			c-4.1,0-6.1-2.2-6.1-6.6c0-0.5,0.6-6.2,1.8-17.1l1.4-12.5c0.5-4.4,0.7-8.4,0.7-12.2c0-4.7-1-8.1-2.9-10.3c4.5-1.6,7.8-2.5,9.6-2.5
			c3.4,0,5.2,2,5.2,6.1c0,1.4-0.5,6.8-1.4,16.1L531.2,366.1z"/>
		<path class="st1" d="M703.8,343.4c0.1,0.9,0.2,1.8,0.2,2.5c0,11.3-3.8,21.2-11.5,29.6c-7.7,8.4-16.7,12.6-26.9,12.6
			c-7.9,0-14.3-2.5-19.2-7.5c-4.9-5-7.4-11.6-7.4-19.6c0-9.1,3.2-17,9.6-23.7c6.4-6.7,13.9-10,22.6-10c1.3,0,2.7,0.2,4.2,0.5
			c-1-1.8-1.5-3.3-1.5-4.5c0-1.9,0.6-3.7,1.9-5.4c9.6,0.8,17.5,5.7,23.8,14.7c6.5,4.4,13.3,6.6,20.3,6.6c4.6,0,9.5-1.5,14.9-4.6
			l2.9,5c-6.2,4.3-12.6,6.5-19.1,6.5C714.2,346.1,709.3,345.2,703.8,343.4z M690.5,338.4c-3.2-1-6.2-2.5-9-4.7c-2-0.4-3.7-0.6-5-0.6
			c-6.7,0-12.6,3-17.7,9c-5.1,6-7.7,12.8-7.7,20.5c0,5.6,1.6,10.1,4.7,13.7c3.1,3.6,7.1,5.4,12,5.4c6.6,0,12.3-3.3,17.1-10
			c4.8-6.7,7.2-14.6,7.2-23.9C692,344.6,691.5,341.5,690.5,338.4z"/>
	</g>
</g>
<rect id="_x3C_Slice_x3E_" x="164.3" y="136.7" class="st2" width="573.4" height="361.5"/>
</svg>
